<svg width="250" height="250" viewBox="0 0 250 250" fill="none" xmlns="http://www.w3.org/2000/svg">
  <rect width="250" height="250" rx="51" fill="#D9D9D9"/>
  <path fill-rule="evenodd" clip-rule="evenodd"
        d="M125.177 70L103.248 48.0711L96.1769 41L89.1058 48.0711L19.0711 118.106L12 125.177L19.0711 132.248L89.1058 202.283L96.1769 209.354L103.248 202.283L125.177 180.354L147.106 202.283L154.177 209.354L161.248 202.283L231.283 132.248L238.354 125.177L231.283 118.106L161.248 48.0711L154.177 41L147.106 48.0711L125.177 70ZM139.319 166.212L166.212 139.319C174.022 131.509 174.022 118.845 166.212 111.035L145.606 90.4288L131.464 104.571L152.07 125.177L96.1769 181.07L40.2843 125.177L96.1769 69.2843L111.035 84.1421L84.1421 111.035C76.3317 118.845 76.3316 131.509 84.1421 139.319L104.748 159.925L118.89 145.783L98.2843 125.177L154.177 69.2843L210.07 125.177L154.177 181.07L139.319 166.212Z"
        fill="black"/>
</svg>
