<svg width="41" height="41" viewBox="0 0 41 41" fill="none" xmlns="http://www.w3.org/2000/svg">
<g id="Group 5">
<rect id="Rectangle 3" width="40.1133" height="40.1133" rx="8.18311" fill="white"/>
<path id="Union" fill-rule="evenodd" clip-rule="evenodd" d="M22.3542 26.6692L26.6692 22.3543C27.9224 21.1011 27.9224 19.0692 26.6692 17.816L23.3628 14.5096L21.0937 16.7788L24.4 20.0851L15.4319 29.0533L6.46372 20.0851L15.4319 11.117L17.8159 13.501L13.5009 17.8159C12.2477 19.0691 12.2477 21.101 13.5009 22.3542L16.8072 25.6605L19.0764 23.3914L15.7701 20.0851L24.7382 11.1169L33.7064 20.0851L24.7382 29.0532L22.3542 26.6692ZM20.0851 28.9384L16.5664 32.457L15.4319 33.5916L14.2973 32.457L3.05999 21.2197L1.92542 20.0851L3.05999 18.9506L14.2973 7.71325L15.4319 6.57868L16.5664 7.71325L20.085 11.2318L23.6036 7.71319L24.7382 6.57861L25.8728 7.71319L37.1101 18.9505L38.2447 20.0851L37.1101 21.2196L25.8728 32.4569L24.7382 33.5915L23.6036 32.4569L20.0851 28.9384Z" fill="black"/>
</g>
</svg>
