<svg width="43" height="43" viewBox="0 0 43 43" fill="none" xmlns="http://www.w3.org/2000/svg">
<g id="Group 13">
<rect id="Rectangle 3" x="0.0803223" y="0.610168" width="42" height="41.832" rx="7.11977" fill="#7C5023"/>
<path id="Union" fill-rule="evenodd" clip-rule="evenodd" d="M23.0884 28.4218L28.0038 23.526C29.0964 22.4379 29.0964 20.6736 28.0038 19.5854L24.1444 15.7414L22.1662 17.7117L26.0256 21.5557L16.238 31.3042L6.45038 21.5557L16.238 11.8073L19.1317 14.6895L14.2163 19.5852C13.1238 20.6734 13.1238 22.4377 14.2163 23.5259L18.076 27.3701L20.0542 25.3998L16.1946 21.5556L25.9822 11.8071L35.7698 21.5556L25.9822 31.304L23.0884 28.4218ZM21.1101 30.3921L17.2271 34.2597L16.238 35.2448L15.2489 34.2597L3.48302 22.5409L2.4939 21.5557L3.48302 20.5706L15.2489 8.85177L16.238 7.86661L17.2271 8.85177L21.11 12.7191L24.993 8.85162L25.9822 7.86646L26.9713 8.85162L38.7371 20.5704L39.7262 21.5556L38.7371 22.5407L26.9713 34.2595L25.9822 35.2447L24.993 34.2595L21.1101 30.3921Z" fill="white"/>
</g>
</svg>
